<svg width="176" height="64" viewBox="0 0 176 64" fill="none" xmlns="http://www.w3.org/2000/svg">
<path d="M69.3085 30.48H81.7885V45.888C78.7645 47.472 73.9645 48.72 69.3565 48.72C58.9885 48.72 53.8525 41.712 53.8525 31.68C53.8525 22.512 58.9885 14.64 70.3165 14.64C74.7325 14.64 78.8605 15.84 81.4045 16.992L79.4845 22.176C77.0365 21.168 73.7725 20.352 70.3165 20.352C63.5485 20.352 60.8125 24.912 60.8125 31.68C60.8125 38.544 63.4045 43.008 69.6445 43.008C71.7085 43.008 73.5805 42.768 75.1165 42.144V36.048L69.3085 35.232V30.48ZM129.723 15.36V15.84L120.843 48H112.923L106.347 22.704H106.299L99.7233 48H91.7553L82.8753 15.84V15.36H90.0273L95.5473 40.8H95.6433L102.411 15.36H110.187L116.955 40.8H117.051L122.523 15.36H129.723ZM129.856 45.6L131.92 40.368C133.936 41.616 137.968 43.104 140.944 43.104C144.544 43.104 146.32 41.712 146.32 38.976C146.32 36.864 145.12 36 141.712 34.848L138.208 33.696C133.024 32.016 130.48 28.8 130.48 24.624C130.48 18.672 134.56 14.64 142.336 14.64C144.976 14.64 148.96 15.456 151.984 16.992L149.968 22.32C147.616 21.168 144.4 20.256 142.336 20.256C138.736 20.256 137.296 21.744 137.296 24.048C137.296 25.728 138.016 26.976 140.656 27.792L144.064 28.896C150.208 30.816 153.136 33.456 153.136 38.4C153.136 44.832 148.48 48.72 140.944 48.72C136.912 48.72 132.544 47.136 129.856 45.6Z" fill="black"/>
<path d="M69.3085 30.48V29.48H68.3085V30.48H69.3085ZM81.7885 30.48H82.7885V29.48H81.7885V30.48ZM81.7885 45.888L82.2525 46.7738L82.7885 46.4931V45.888H81.7885ZM81.4045 16.992L82.3423 17.3393L82.6659 16.4655L81.817 16.081L81.4045 16.992ZM79.4845 22.176L79.1038 23.1007L80.0623 23.4953L80.4223 22.5233L79.4845 22.176ZM75.1165 42.144L75.4929 43.0705L76.1165 42.8171V42.144H75.1165ZM75.1165 36.048H76.1165V35.1787L75.2557 35.0577L75.1165 36.048ZM69.3085 35.232H68.3085V36.1013L69.1694 36.2223L69.3085 35.232ZM69.3085 31.48H81.7885V29.48H69.3085V31.48ZM80.7885 30.48V45.888H82.7885V30.48H80.7885ZM81.3245 45.0022C78.4542 46.5057 73.8152 47.72 69.3565 47.72V49.72C74.1139 49.72 79.0749 48.4383 82.2525 46.7738L81.3245 45.0022ZM69.3565 47.72C64.4133 47.72 60.8345 46.0594 58.4754 43.3107C56.0965 40.539 54.8525 36.5377 54.8525 31.68H52.8525C52.8525 36.8543 54.1766 41.373 56.9577 44.6133C59.7585 47.8766 63.9318 49.72 69.3565 49.72V47.72ZM54.8525 31.68C54.8525 27.2718 56.0876 23.2656 58.5921 20.3771C61.0774 17.5107 64.9024 15.64 70.3165 15.64V13.64C64.4026 13.64 59.9957 15.7053 57.081 19.0669C54.1855 22.4064 52.8525 26.9202 52.8525 31.68H54.8525ZM70.3165 15.64C74.5683 15.64 78.556 16.7999 80.992 17.903L81.817 16.081C79.165 14.8801 74.8967 13.64 70.3165 13.64V15.64ZM80.4668 16.6447L78.5468 21.8287L80.4223 22.5233L82.3423 17.3393L80.4668 16.6447ZM79.8653 21.2513C77.3146 20.2011 73.9214 19.352 70.3165 19.352V21.352C73.6236 21.352 76.7584 22.1349 79.1038 23.1007L79.8653 21.2513ZM70.3165 19.352C66.6867 19.352 63.9898 20.5891 62.2344 22.8677C60.5147 25.0998 59.8125 28.1862 59.8125 31.68H61.8125C61.8125 28.4058 62.4783 25.8282 63.8187 24.0883C65.1233 22.3949 67.1784 21.352 70.3165 21.352V19.352ZM59.8125 31.68C59.8125 35.2107 60.4745 38.2871 62.0783 40.5041C63.7228 42.7774 66.2556 44.008 69.6445 44.008V42.008C66.7935 42.008 64.9102 41.0066 63.6988 39.3319C62.4465 37.6009 61.8125 35.0133 61.8125 31.68H59.8125ZM69.6445 44.008C71.7715 44.008 73.7885 43.7629 75.4929 43.0705L74.7402 41.2175C73.3726 41.7731 71.6455 42.008 69.6445 42.008V44.008ZM76.1165 42.144V36.048H74.1165V42.144H76.1165ZM75.2557 35.0577L69.4477 34.2417L69.1694 36.2223L74.9774 37.0383L75.2557 35.0577ZM70.3085 35.232V30.48H68.3085V35.232H70.3085ZM129.723 15.36H130.723V14.36H129.723V15.36ZM129.723 15.84L130.687 16.1062L130.723 15.9755V15.84H129.723ZM120.843 48V49H121.605L121.807 48.2662L120.843 48ZM112.923 48L111.955 48.2516L112.15 49H112.923V48ZM106.347 22.704L107.315 22.4524L107.121 21.704H106.347V22.704ZM106.299 22.704V21.704H105.526L105.331 22.4524L106.299 22.704ZM99.7233 48V49H100.497L100.691 48.2516L99.7233 48ZM91.7553 48L90.7914 48.2662L90.994 49H91.7553V48ZM82.8753 15.84H81.8753V15.9755L81.9114 16.1062L82.8753 15.84ZM82.8753 15.36V14.36H81.8753V15.36H82.8753ZM90.0273 15.36L91.0045 15.148L90.8336 14.36H90.0273V15.36ZM95.5473 40.8L94.57 41.012L94.741 41.8H95.5473V40.8ZM95.6433 40.8V41.8H96.412L96.6097 41.0571L95.6433 40.8ZM102.411 15.36V14.36H101.643L101.445 15.1029L102.411 15.36ZM110.187 15.36L111.154 15.1029L110.956 14.36H110.187V15.36ZM116.955 40.8L115.989 41.0571L116.187 41.8H116.955V40.8ZM117.051 40.8V41.8H117.859L118.029 41.0103L117.051 40.8ZM122.523 15.36V14.36H121.716L121.546 15.1497L122.523 15.36ZM128.723 15.36V15.84H130.723V15.36H128.723ZM128.759 15.5738L119.879 47.7338L121.807 48.2662L130.687 16.1062L128.759 15.5738ZM120.843 47H112.923V49H120.843V47ZM113.891 47.7484L107.315 22.4524L105.379 22.9556L111.955 48.2516L113.891 47.7484ZM106.347 21.704H106.299V23.704H106.347V21.704ZM105.331 22.4524L98.7555 47.7484L100.691 48.2516L107.267 22.9556L105.331 22.4524ZM99.7233 47H91.7553V49H99.7233V47ZM92.7192 47.7338L83.8392 15.5738L81.9114 16.1062L90.7914 48.2662L92.7192 47.7338ZM83.8753 15.84V15.36H81.8753V15.84H83.8753ZM82.8753 16.36H90.0273V14.36H82.8753V16.36ZM89.05 15.572L94.57 41.012L96.5245 40.588L91.0045 15.148L89.05 15.572ZM95.5473 41.8H95.6433V39.8H95.5473V41.8ZM96.6097 41.0571L103.378 15.6171L101.445 15.1029L94.6769 40.5429L96.6097 41.0571ZM102.411 16.36H110.187V14.36H102.411V16.36ZM109.221 15.6171L115.989 41.0571L117.922 40.5429L111.154 15.1029L109.221 15.6171ZM116.955 41.8H117.051V39.8H116.955V41.8ZM118.029 41.0103L123.501 15.5703L121.546 15.1497L116.074 40.5897L118.029 41.0103ZM122.523 16.36H129.723V14.36H122.523V16.36ZM129.856 45.6L128.926 45.233L128.608 46.0386L129.36 46.4682L129.856 45.6ZM131.92 40.368L132.446 39.5177L131.429 38.8879L130.99 40.001L131.92 40.368ZM141.712 34.848L142.032 33.9006L142.024 33.898L141.712 34.848ZM138.208 33.696L138.52 32.746L138.516 32.7447L138.208 33.696ZM151.984 16.992L152.919 17.3459L153.237 16.5067L152.437 16.1004L151.984 16.992ZM149.968 22.32L149.528 23.2181L150.515 23.7012L150.903 22.6739L149.968 22.32ZM140.656 27.792L140.964 26.8406L140.951 26.8366L140.656 27.792ZM144.064 28.896L143.756 29.8474L143.766 29.8505L144.064 28.896ZM130.786 45.967L132.85 40.735L130.99 40.001L128.926 45.233L130.786 45.967ZM131.394 41.2183C132.486 41.8946 134.076 42.6092 135.764 43.1554C137.448 43.7003 139.311 44.104 140.944 44.104V42.104C139.601 42.104 137.96 41.7637 136.38 41.2526C134.804 40.7428 133.37 40.0894 132.446 39.5177L131.394 41.2183ZM140.944 44.104C142.845 44.104 144.448 43.7412 145.593 42.8576C146.787 41.9363 147.32 40.578 147.32 38.976H145.32C145.32 40.11 144.965 40.8157 144.371 41.2744C143.728 41.7708 142.643 42.104 140.944 42.104V44.104ZM147.32 38.976C147.32 37.6803 146.929 36.6389 145.946 35.7936C145.056 35.0289 143.731 34.4749 142.032 33.9007L141.392 35.7953C143.101 36.3731 144.08 36.8271 144.642 37.3104C145.111 37.7131 145.32 38.1597 145.32 38.976H147.32ZM142.024 33.898L138.52 32.746L137.896 34.646L141.4 35.798L142.024 33.898ZM138.516 32.7447C136.052 31.9461 134.3 30.8097 133.167 29.4546C132.045 28.1116 131.48 26.4951 131.48 24.624H129.48C129.48 26.9289 130.188 29.0084 131.633 30.7374C133.068 32.4543 135.18 33.7659 137.9 34.6473L138.516 32.7447ZM131.48 24.624C131.48 21.8878 132.41 19.6837 134.152 18.1509C135.91 16.6048 138.612 15.64 142.336 15.64V13.64C138.284 13.64 135.058 14.6912 132.832 16.6491C130.59 18.6203 129.48 21.4082 129.48 24.624H131.48ZM142.336 15.64C144.828 15.64 148.655 16.4229 151.531 17.8836L152.437 16.1004C149.265 14.4891 145.124 13.64 142.336 13.64V15.64ZM151.049 16.6381L149.033 21.9661L150.903 22.6739L152.919 17.3459L151.049 16.6381ZM150.408 21.4219C147.972 20.229 144.603 19.256 142.336 19.256V21.256C144.198 21.256 147.26 22.107 149.528 23.2181L150.408 21.4219ZM142.336 19.256C140.423 19.256 138.896 19.6477 137.834 20.5128C136.735 21.4087 136.296 22.6766 136.296 24.048H138.296C138.296 23.1154 138.577 22.4873 139.098 22.0632C139.656 21.6083 140.649 21.256 142.336 21.256V19.256ZM136.296 24.048C136.296 25.0368 136.511 26.0198 137.212 26.8768C137.895 27.7123 138.942 28.309 140.361 28.7474L140.951 26.8366C139.73 26.459 139.097 26.0237 138.76 25.6112C138.441 25.2202 138.296 24.7392 138.296 24.048H136.296ZM140.348 28.7433L143.756 29.8473L144.372 27.9447L140.964 26.8407L140.348 28.7433ZM143.766 29.8505C146.779 30.7921 148.863 31.871 150.193 33.2169C151.482 34.5221 152.136 36.1528 152.136 38.4H154.136C154.136 35.7032 153.326 33.5419 151.615 31.8111C149.945 30.121 147.493 28.9199 144.362 27.9415L143.766 29.8505ZM152.136 38.4C152.136 41.3564 151.077 43.6431 149.221 45.2075C147.345 46.7896 144.55 47.72 140.944 47.72V49.72C144.874 49.72 148.175 48.7064 150.511 46.7365C152.868 44.7489 154.136 41.8756 154.136 38.4H152.136ZM140.944 47.72C137.132 47.72 132.935 46.2076 130.352 44.7318L129.36 46.4682C132.153 48.0644 136.692 49.72 140.944 49.72V47.72Z" fill="black"/>
<rect x="0.5" y="7.5" width="22.8493" height="25.321" fill="black" stroke="black"/>
<rect x="26.7114" y="13.2778" width="17.6544" height="19.5432" fill="black" stroke="black"/>
<rect x="3.06982" y="36.0171" width="20.7796" height="22.9827" fill="#4BABE8"/>
<rect x="26.7114" y="36.5171" width="14.8208" height="16.5901" fill="black" stroke="black"/>
</svg>
